<svg xmlns="http://www.w3.org/2000/svg" height="464pt" version="1.1" viewBox="0 -4 464.00199 464" width="464pt">
<g id="surface1">
<path d="M 384 56 C 384 25.074219 298.039062 0 192 0 C 85.960938 0 0 25.074219 0 56 C 0 86.929688 85.960938 112 192 112 C 298.039062 112 384 86.929688 384 56 Z M 384 56 " style=" stroke:none;fill-rule:nonzero;fill:rgb(74.117647%,85.882353%,100%);fill-opacity:1;" />
<path d="M 192 224 C 298 224 384 198.960938 384 168 L 384 56 C 384 86.960938 298 112 192 112 C 86 112 0 86.960938 0 56 L 0 168 C 0 198.960938 86 224 192 224 Z M 192 224 " style=" stroke:none;fill-rule:nonzero;fill:rgb(60.784314%,78.823529%,100%);fill-opacity:1;" />
<path d="M 192 336 C 213.988281 336.023438 235.964844 334.902344 257.839844 332.640625 C 263.125 304.734375 279.597656 280.207031 303.421875 264.75 C 327.25 249.292969 356.363281 244.253906 384 250.800781 L 384 168 C 384 198.960938 298 224 192 224 C 86 224 0 198.960938 0 168 L 0 280 C 0 310.960938 86 336 192 336 Z M 192 336 " style=" stroke:none;fill-rule:nonzero;fill:rgb(34.117647%,64.313725%,100%);fill-opacity:1;" />
<path d="M 256 352 C 256 345.503906 256.613281 339.019531 257.839844 332.640625 C 235.964844 334.902344 213.988281 336.023438 192 336 C 86 336 0 310.960938 0 280 L 0 392 C 0 422.960938 86 448 192 448 C 228.746094 448.253906 265.425781 444.902344 301.519531 438 C 273.042969 418.636719 256 386.4375 256 352 Z M 256 352 " style=" stroke:none;fill-rule:nonzero;fill:rgb(14.117647%,53.333333%,100%);fill-opacity:1;" />
<path d="M 384 250.800781 C 340.917969 240.582031 296.089844 258.761719 272.292969 296.101562 C 248.5 333.441406 250.957031 381.753906 278.414062 416.488281 C 305.871094 451.222656 352.3125 464.765625 394.136719 450.230469 C 435.960938 435.699219 463.996094 396.277344 464 352 C 464.300781 303.703125 431.0625 261.65625 384 250.800781 Z M 410.910156 402.914062 L 360 352 L 309.089844 402.914062 L 360 352 L 309.089844 301.089844 L 360 352 L 410.910156 301.089844 L 360 352 Z M 410.910156 402.914062 " style=" stroke:none;fill-rule:nonzero;fill:rgb(100%,47.45098%,33.72549%);fill-opacity:1;" />
<path d="M 410.910156 410.914062 C 408.789062 410.914062 406.757812 410.070312 405.257812 408.570312 L 303.433594 306.746094 C 300.398438 303.605469 300.445312 298.617188 303.53125 295.53125 C 306.617188 292.445312 311.605469 292.402344 314.742188 295.433594 L 416.566406 397.257812 C 418.855469 399.546875 419.539062 402.984375 418.300781 405.972656 C 417.0625 408.964844 414.148438 410.914062 410.910156 410.914062 Z M 410.910156 410.914062 " style=" stroke:none;fill-rule:nonzero;fill:rgb(94.509804%,94.901961%,94.901961%);fill-opacity:1;" />
<path d="M 309.089844 410.914062 C 305.851562 410.914062 302.9375 408.964844 301.699219 405.972656 C 300.460938 402.984375 301.144531 399.546875 303.433594 397.257812 L 405.257812 295.433594 C 408.394531 292.402344 413.382812 292.445312 416.46875 295.53125 C 419.554688 298.617188 419.601562 303.605469 416.566406 306.746094 L 314.742188 408.570312 C 313.242188 410.070312 311.210938 410.914062 309.089844 410.914062 Z M 309.089844 410.914062 " style=" stroke:none;fill-rule:nonzero;fill:rgb(94.509804%,94.901961%,94.901961%);fill-opacity:1;" />
</g>
</svg>