<svg height="512" viewBox="0 0 58 58" width="512" xmlns="http://www.w3.org/2000/svg"><g id="Page-1" fill="none" fill-rule="evenodd"><g id="027---Server-Files" fill-rule="nonzero"><path id="Shape" d="m36 30c.5522847 0 1-.4477153 1-1s-.4477153-1-1-1h-5v-16c0-.5522847.4477153-1 1-1h4c.5522847 0 1-.4477153 1-1 0-.55228475-.4477153-1-1-1h-4c-1.6568542 0-3 1.3431458-3 3v16h-5c-.5522847 0-1 .4477153-1 1s.4477153 1 1 1h5v16c0 1.6568542 1.3431458 3 3 3h4c.5522847 0 1-.4477153 1-1s-.4477153-1-1-1h-4c-.5522847 0-1-.4477153-1-1v-16z" fill="#2fa8cc"/><path id="Shape" d="m0 17v24c0 2.21 5.37 4 12 4s12-1.79 12-4v-24z" fill="#955ba5"/><path id="Shape" d="m0 33c0 2.209 5.373 4 12 4s12-1.791 12-4v-8c0 2.209-5.373 4-12 4s-12-1.791-12-4z" fill="#894b9d"/><circle id="Oval" cx="4" cy="24" fill="#f0c419" r="1"/><circle id="Oval" cx="4" cy="32" fill="#f0c419" r="1"/><circle id="Oval" cx="4" cy="40" fill="#f0c419" r="1"/><ellipse id="Oval" cx="12" cy="16.5" fill="#b49aca" rx="12" ry="4.5"/><path id="Shape" d="m58 6v8c-.0032948 1.1032019-.8967981 1.9967052-2 2h-18c-1.1032019-.0032948-1.9967052-.8967981-2-2v-12c.0032948-1.10320187.8967981-1.9967052 2-2h6c1.1045695 0 2 .8954305 2 2s.8954305 2 2 2h8c1.1045695 0 2 .8954305 2 2z" fill="#f0c419"/><path id="Shape" d="m58 27v8c-.0032948 1.1032019-.8967981 1.9967052-2 2h-18c-1.1032019-.0032948-1.9967052-.8967981-2-2v-12c.0032948-1.1032019.8967981-1.9967052 2-2h6c1.1045695 0 2 .8954305 2 2s.8954305 2 2 2h8c1.1045695 0 2 .8954305 2 2z" fill="#f0c419"/><path id="Shape" d="m58 48v8c-.0032948 1.1032019-.8967981 1.9967052-2 2h-18c-1.1032019-.0032948-1.9967052-.8967981-2-2v-12c.0032948-1.1032019.8967981-1.9967052 2-2h6c1.1045695 0 2 .8954305 2 2s.8954305 2 2 2h8c1.1045695 0 2 .8954305 2 2z" fill="#f0c419"/><g fill="#f29c1f"><circle id="Oval" cx="40" cy="12" r="1"/><circle id="Oval" cx="40" cy="8" r="1"/><circle id="Oval" cx="40" cy="33" r="1"/><circle id="Oval" cx="40" cy="29" r="1"/><circle id="Oval" cx="40" cy="54" r="1"/><circle id="Oval" cx="40" cy="50" r="1"/></g></g></g></svg>