<svg xmlns="http://www.w3.org/2000/svg" height="623.4pt" version="1.1" viewBox="0 0 623.4 623.4" width="623.4pt">
<g id="surface1">
<path d="M 257.601562 172.601562 C 298 172.800781 338.398438 169.898438 378.300781 163.898438 C 376 154.101562 375.199219 144 375.800781 134 L 342.601562 125 L 353.800781 83.5 L 387.101562 92.398438 C 393.199219 80.101562 401.601562 69.101562 411.898438 60 L 397 34.199219 C 351 26 304.398438 22 257.699219 22.300781 C 115.398438 22.300781 0 55.898438 0 97.5 C 0 139.101562 115.398438 172.601562 257.601562 172.601562 Z M 257.601562 172.601562 " style=" stroke:none;fill-rule:nonzero;fill:rgb(74.117647%,85.882353%,100%);fill-opacity:1;" />
<path d="M 476.601562 247.5 L 467.699219 280.800781 L 426.199219 269.601562 L 435.101562 236.300781 C 422.800781 230.199219 411.800781 221.800781 402.699219 211.5 L 373 228.699219 L 351.398438 191.601562 L 381.101562 174.398438 C 379.898438 171 379 167.5 378.300781 163.898438 C 338.300781 169.800781 298 172.800781 257.601562 172.601562 C 115.398438 172.601562 0 139 0 97.5 L 0 247.800781 C 0 289.300781 115.398438 322.898438 257.601562 322.898438 C 399.800781 322.898438 515.199219 289.300781 515.199219 247.800781 L 515.199219 242.898438 C 502.699219 246.699219 489.601562 248.300781 476.601562 247.5 Z M 476.601562 247.5 " style=" stroke:none;fill-rule:nonzero;fill:rgb(60.784314%,78.823529%,100%);fill-opacity:1;" />
<path d="M 257.601562 322.800781 C 115.398438 322.800781 0 289.199219 0 247.699219 L 0 398 C 0 439.5 115.398438 473.101562 257.601562 473.101562 C 399.800781 473.101562 515.199219 439.5 515.199219 398 L 515.199219 247.699219 C 515.199219 289.199219 399.800781 322.800781 257.601562 322.800781 Z M 257.601562 322.800781 " style=" stroke:none;fill-rule:nonzero;fill:rgb(34.117647%,64.313725%,100%);fill-opacity:1;" />
<path d="M 257.601562 473.101562 C 115.398438 473.101562 0 439.5 0 398 L 0 548.300781 C 0 589.800781 115.398438 623.398438 257.601562 623.398438 C 399.800781 623.398438 515.199219 589.800781 515.199219 548.300781 L 515.199219 398 C 515.199219 439.5 399.800781 473.101562 257.601562 473.101562 Z M 257.601562 473.101562 " style=" stroke:none;fill-rule:nonzero;fill:rgb(14.117647%,53.333333%,100%);fill-opacity:1;" />
<path d="M 584.898438 106.398438 L 614.601562 89.199219 L 593.101562 52.101562 L 563.398438 69.199219 C 554.300781 58.898438 543.300781 50.5 531 44.398438 L 539.898438 11.101562 L 498.398438 0 L 489.5 33.300781 C 475.800781 32.398438 462.101562 34.199219 449 38.601562 L 431.800781 8.898438 L 394.699219 30.398438 L 397 34.398438 L 411.898438 60 C 401.601562 69.101562 393.199219 80.101562 387.101562 92.398438 L 353.800781 83.5 L 342.601562 125 L 375.898438 133.898438 C 375.199219 143.898438 376.101562 154 378.398438 163.800781 C 379.101562 167.398438 380 170.898438 381.199219 174.300781 L 351.398438 191.601562 L 372.898438 228.699219 L 402.601562 211.5 C 411.699219 221.800781 422.699219 230.199219 435 236.300781 L 426.101562 269.601562 L 467.601562 280.800781 L 476.5 247.5 C 489.601562 248.300781 502.699219 246.699219 515.101562 242.800781 C 515.699219 242.699219 516.300781 242.5 516.898438 242.300781 L 534.101562 272 L 571.199219 250.5 L 554 220.800781 C 564.300781 211.699219 572.699219 200.699219 578.800781 188.398438 L 612.101562 197.300781 L 623.398438 155.699219 L 590.101562 146.800781 C 591 133.101562 589.199219 119.398438 584.898438 106.398438 Z M 515.199219 196.199219 C 484.398438 214 445 203.398438 427.300781 172.601562 C 409.601562 141.800781 420.101562 102.398438 450.898438 84.699219 C 481.699219 67 521 77.5 538.800781 108.300781 C 556.601562 139 546 178.398438 515.199219 196.199219 Z M 515.199219 196.199219 " style=" stroke:none;fill-rule:nonzero;fill:rgb(36.862745%,67.45098%,14.117647%);fill-opacity:1;" />
</g>
</svg>