<svg xmlns="http://www.w3.org/2000/svg" height="512pt" version="1.1" viewBox="-44 0 512 512.00002" width="512pt">
<g id="surface1">
<path d="M 423.722656 0 L 0 0 L 0 70.621094 L 423.722656 70.621094 Z M 423.722656 0 " style=" stroke:none;fill-rule:nonzero;fill:rgb(14.117647%,53.333333%,100%);fill-opacity:1;" />
<path d="M 423.722656 70.621094 L 0 70.621094 L 176.550781 335.449219 L 247.171875 335.449219 Z M 423.722656 70.621094 " style=" stroke:none;fill-rule:nonzero;fill:rgb(34.117647%,64.313725%,100%);fill-opacity:1;" />
<path d="M 247.171875 441.378906 L 247.171875 335.449219 L 176.550781 335.449219 L 176.550781 512 Z M 247.171875 441.378906 " style=" stroke:none;fill-rule:nonzero;fill:rgb(60.784314%,78.823529%,100%);fill-opacity:1;" />
<path d="M 211.863281 52.964844 C 206.988281 52.964844 203.035156 49.011719 203.035156 44.136719 L 203.035156 26.484375 C 203.035156 21.605469 206.988281 17.65625 211.863281 17.65625 C 216.738281 17.65625 220.691406 21.605469 220.691406 26.484375 L 220.691406 44.136719 C 220.691406 49.011719 216.738281 52.964844 211.863281 52.964844 Z M 211.863281 52.964844 " style=" stroke:none;fill-rule:nonzero;fill:rgb(12.941176%,25.098039%,60.392157%);fill-opacity:1;" />
<path d="M 247.171875 52.964844 C 242.296875 52.964844 238.34375 49.011719 238.34375 44.136719 L 238.34375 26.484375 C 238.34375 21.605469 242.296875 17.65625 247.171875 17.65625 C 252.046875 17.65625 256 21.605469 256 26.484375 L 256 44.136719 C 256 49.011719 252.046875 52.964844 247.171875 52.964844 Z M 247.171875 52.964844 " style=" stroke:none;fill-rule:nonzero;fill:rgb(12.941176%,25.098039%,60.392157%);fill-opacity:1;" />
<path d="M 282.484375 52.964844 C 277.605469 52.964844 273.65625 49.011719 273.65625 44.136719 L 273.65625 26.484375 C 273.65625 21.605469 277.605469 17.65625 282.484375 17.65625 C 287.359375 17.65625 291.308594 21.605469 291.308594 26.484375 L 291.308594 44.136719 C 291.308594 49.011719 287.359375 52.964844 282.484375 52.964844 Z M 282.484375 52.964844 " style=" stroke:none;fill-rule:nonzero;fill:rgb(12.941176%,25.098039%,60.392157%);fill-opacity:1;" />
<path d="M 317.792969 52.964844 C 312.917969 52.964844 308.964844 49.011719 308.964844 44.136719 L 308.964844 26.484375 C 308.964844 21.605469 312.917969 17.65625 317.792969 17.65625 C 322.667969 17.65625 326.621094 21.605469 326.621094 26.484375 L 326.621094 44.136719 C 326.621094 49.011719 322.667969 52.964844 317.792969 52.964844 Z M 317.792969 52.964844 " style=" stroke:none;fill-rule:nonzero;fill:rgb(12.941176%,25.098039%,60.392157%);fill-opacity:1;" />
<path d="M 353.101562 52.964844 C 348.226562 52.964844 344.277344 49.011719 344.277344 44.136719 L 344.277344 26.484375 C 344.277344 21.605469 348.226562 17.65625 353.101562 17.65625 C 357.976562 17.65625 361.929688 21.605469 361.929688 26.484375 L 361.929688 44.136719 C 361.929688 49.011719 357.976562 52.964844 353.101562 52.964844 Z M 353.101562 52.964844 " style=" stroke:none;fill-rule:nonzero;fill:rgb(12.941176%,25.098039%,60.392157%);fill-opacity:1;" />
<path d="M 388.414062 52.964844 C 383.539062 52.964844 379.585938 49.011719 379.585938 44.136719 L 379.585938 26.484375 C 379.585938 21.605469 383.539062 17.65625 388.414062 17.65625 C 393.289062 17.65625 397.242188 21.605469 397.242188 26.484375 L 397.242188 44.136719 C 397.242188 49.011719 393.289062 52.964844 388.414062 52.964844 Z M 388.414062 52.964844 " style=" stroke:none;fill-rule:nonzero;fill:rgb(12.941176%,25.098039%,60.392157%);fill-opacity:1;" />
<path d="M 176.550781 52.964844 C 171.675781 52.964844 167.722656 49.011719 167.722656 44.136719 L 167.722656 26.484375 C 167.722656 21.605469 171.675781 17.65625 176.550781 17.65625 C 181.425781 17.65625 185.378906 21.605469 185.378906 26.484375 L 185.378906 44.136719 C 185.378906 49.011719 181.425781 52.964844 176.550781 52.964844 Z M 176.550781 52.964844 " style=" stroke:none;fill-rule:nonzero;fill:rgb(12.941176%,25.098039%,60.392157%);fill-opacity:1;" />
<path d="M 141.242188 52.964844 C 136.367188 52.964844 132.414062 49.011719 132.414062 44.136719 L 132.414062 26.484375 C 132.414062 21.605469 136.367188 17.65625 141.242188 17.65625 C 146.117188 17.65625 150.070312 21.605469 150.070312 26.484375 L 150.070312 44.136719 C 150.070312 49.011719 146.117188 52.964844 141.242188 52.964844 Z M 141.242188 52.964844 " style=" stroke:none;fill-rule:nonzero;fill:rgb(12.941176%,25.098039%,60.392157%);fill-opacity:1;" />
<path d="M 105.929688 52.964844 C 101.054688 52.964844 97.105469 49.011719 97.105469 44.136719 L 97.105469 26.484375 C 97.105469 21.605469 101.054688 17.65625 105.929688 17.65625 C 110.808594 17.65625 114.757812 21.605469 114.757812 26.484375 L 114.757812 44.136719 C 114.757812 49.011719 110.808594 52.964844 105.929688 52.964844 Z M 105.929688 52.964844 " style=" stroke:none;fill-rule:nonzero;fill:rgb(12.941176%,25.098039%,60.392157%);fill-opacity:1;" />
<path d="M 70.621094 52.964844 C 65.746094 52.964844 61.792969 49.011719 61.792969 44.136719 L 61.792969 26.484375 C 61.792969 21.605469 65.746094 17.65625 70.621094 17.65625 C 75.496094 17.65625 79.449219 21.605469 79.449219 26.484375 L 79.449219 44.136719 C 79.449219 49.011719 75.496094 52.964844 70.621094 52.964844 Z M 70.621094 52.964844 " style=" stroke:none;fill-rule:nonzero;fill:rgb(12.941176%,25.098039%,60.392157%);fill-opacity:1;" />
<path d="M 35.308594 52.964844 C 30.433594 52.964844 26.484375 49.011719 26.484375 44.136719 L 26.484375 26.484375 C 26.484375 21.605469 30.433594 17.65625 35.308594 17.65625 C 40.1875 17.65625 44.136719 21.605469 44.136719 26.484375 L 44.136719 44.136719 C 44.136719 49.011719 40.1875 52.964844 35.308594 52.964844 Z M 35.308594 52.964844 " style=" stroke:none;fill-rule:nonzero;fill:rgb(12.941176%,25.098039%,60.392157%);fill-opacity:1;" />
</g>
</svg>